<svg width="16" height="17" viewBox="0 0 16 17" fill="none" xmlns="http://www.w3.org/2000/svg">
<mask id="mask0_2165_10422" style="mask-type:alpha" maskUnits="userSpaceOnUse" x="0" y="0" width="16" height="17">
<path d="M9 12.5C9 12.6978 8.94135 12.8911 8.83147 13.0556C8.72159 13.22 8.56541 13.3482 8.38268 13.4239C8.19996 13.4996 7.99889 13.5194 7.80491 13.4808C7.61093 13.4422 7.43275 13.347 7.29289 13.2071C7.15304 13.0673 7.0578 12.8891 7.01922 12.6951C6.98063 12.5011 7.00043 12.3 7.07612 12.1173C7.15181 11.9346 7.27998 11.7784 7.44443 11.6685C7.60888 11.5587 7.80222 11.5 8 11.5C8.26513 11.5003 8.51931 11.6058 8.70678 11.7932C8.89425 11.9807 8.9997 12.2349 9 12.5ZM8 5.5C8.19778 5.5 8.39112 5.44135 8.55557 5.33147C8.72002 5.22159 8.84819 5.06541 8.92388 4.88268C8.99957 4.69996 9.01937 4.49889 8.98079 4.30491C8.9422 4.11093 8.84696 3.93275 8.70711 3.79289C8.56725 3.65304 8.38907 3.5578 8.19509 3.51922C8.00111 3.48063 7.80004 3.50043 7.61732 3.57612C7.43459 3.65181 7.27841 3.77998 7.16853 3.94443C7.05865 4.10888 7 4.30222 7 4.5C7.0003 4.76513 7.10575 5.01931 7.29322 5.20678C7.48069 5.39425 7.73488 5.4997 8 5.5ZM8 7.5C7.80222 7.5 7.60888 7.55865 7.44443 7.66853C7.27998 7.77841 7.15181 7.93459 7.07612 8.11732C7.00043 8.30004 6.98063 8.50111 7.01922 8.69509C7.0578 8.88907 7.15304 9.06725 7.29289 9.20711C7.43275 9.34696 7.61093 9.4422 7.80491 9.48079C7.99889 9.51937 8.19996 9.49957 8.38268 9.42388C8.56541 9.34819 8.72159 9.22002 8.83147 9.05557C8.94135 8.89112 9 8.69778 9 8.5C8.9997 8.23488 8.89425 7.98069 8.70678 7.79322C8.51931 7.60575 8.26513 7.5003 8 7.5Z" fill="black"/>
</mask>
<g mask="url(#mask0_2165_10422)">
<rect y="0.5" width="16" height="16" fill="#6C757D"/>
</g>
</svg>
