<svg width="20" height="21" viewBox="0 0 20 21" fill="none" xmlns="http://www.w3.org/2000/svg">
    <mask id="mask0_2165_7958" style="mask-type:alpha" maskUnits="userSpaceOnUse" x="0" y="0" width="20" height="21">
        <path d="M17.6967 5.4814L10.2914 3.0458C10.1009 2.98473 9.89569 2.98473 9.70518 3.0458L2.3153 5.47379H2.29988L2.26131 5.48901L2.21502 5.51185L2.16103 5.53468L2.13017 5.5499L2.08389 5.58035L2.06075 5.59557L2.01446 5.62601C2.01446 5.63005 2.01284 5.63392 2.00994 5.63678C2.00705 5.63963 2.00313 5.64124 1.99904 5.64124L1.94504 5.6869C1.94504 5.68892 1.94423 5.69086 1.94278 5.69229C1.94133 5.69371 1.93937 5.69452 1.93732 5.69452L1.88333 5.75541L1.8679 5.77824C1.85984 5.78334 1.85294 5.79003 1.84763 5.79789C1.84232 5.80575 1.83872 5.81461 1.83704 5.82391L1.8139 5.84674L1.79076 5.8848C1.78305 5.90002 1.77533 5.90763 1.77533 5.91524L1.75219 5.96091L1.73676 5.99136L1.71362 6.05986C1.7084 6.06917 1.70574 6.07966 1.70591 6.0903C1.69733 6.10691 1.69209 6.12501 1.69048 6.14358C1.69048 6.15119 1.68277 6.16641 1.68277 6.17403C1.68277 6.18164 1.67505 6.21208 1.67505 6.2273V6.25775C1.66794 6.28765 1.66534 6.31843 1.66734 6.34908V12.4381C1.66734 12.6803 1.76486 12.9126 1.93846 13.0839C2.11206 13.2552 2.3475 13.3514 2.593 13.3514C2.8385 13.3514 3.07395 13.2552 3.24754 13.0839C3.42114 12.9126 3.51866 12.6803 3.51866 12.4381V7.61255L5.34685 8.22145C4.78243 9.28832 4.61305 10.5161 4.86794 11.693C5.12283 12.8699 5.786 13.9221 6.74306 14.6682C5.43359 15.2693 4.32167 16.2214 3.53409 17.4159C3.46723 17.5163 3.42108 17.6288 3.39827 17.7468C3.37547 17.8649 3.37645 17.9862 3.40116 18.1039C3.42587 18.2216 3.47383 18.3333 3.5423 18.4327C3.61077 18.5321 3.69841 18.6172 3.80022 18.6831C3.90203 18.7491 4.016 18.7946 4.13565 18.8171C4.25529 18.8396 4.37825 18.8387 4.49752 18.8143C4.61678 18.7899 4.73001 18.7426 4.83074 18.675C4.93146 18.6075 5.01772 18.521 5.08458 18.4205C5.61573 17.6116 6.34359 16.9466 7.20183 16.4862C8.06007 16.0259 9.02143 15.7847 9.9983 15.7847C10.9752 15.7847 11.9365 16.0259 12.7948 16.4862C13.653 16.9466 14.3809 17.6116 14.912 18.4205C14.9974 18.5472 15.1132 18.651 15.2492 18.7228C15.3851 18.7945 15.537 18.8319 15.6911 18.8316C15.8689 18.8318 16.0429 18.7816 16.1925 18.6869C16.3986 18.5532 16.5427 18.3445 16.5932 18.1063C16.6438 17.8682 16.5968 17.6199 16.4625 17.4159C15.6749 16.2214 14.563 15.2693 13.2536 14.6682C14.2106 13.9221 14.8738 12.8699 15.1287 11.693C15.3836 10.5161 15.2142 9.28832 14.6498 8.22145L17.6967 7.21677C17.8819 7.15671 18.0432 7.04049 18.1575 6.88468C18.2718 6.72887 18.3334 6.54143 18.3334 6.34908C18.3334 6.15673 18.2718 5.96929 18.1575 5.81349C18.0432 5.65768 17.8819 5.54146 17.6967 5.4814V5.4814ZM9.9983 4.8725L14.4801 6.34908L12.8756 6.87426L9.9983 7.82567L7.12103 6.87426L5.51655 6.34908L9.9983 4.8725ZM13.3924 10.6114C13.3919 11.1312 13.2687 11.6437 13.0327 12.1084C12.7967 12.5731 12.4543 12.9772 12.0327 13.2887C11.611 13.6003 11.1217 13.8107 10.6033 13.9033C10.085 13.996 9.55189 13.9683 9.04626 13.8225C8.54063 13.6767 8.07634 13.4168 7.69013 13.0633C7.30391 12.7099 7.00639 12.2725 6.8211 11.786C6.63581 11.2994 6.56784 10.777 6.62258 10.26C6.67732 9.74307 6.85325 9.24578 7.13646 8.80752L9.70518 9.65237C9.89569 9.71343 10.1009 9.71343 10.2914 9.65237L12.8601 8.80752C13.2096 9.34585 13.3944 9.97213 13.3924 10.6114V10.6114Z" fill="black" />
    </mask>
    <g mask="url(#mask0_2165_7958)">
        <rect y="0.5" width="20" height="20" fill="#6C757D" />
    </g>
</svg>