<svg width="12" height="13" viewBox="0 0 12 13" fill="none" xmlns="http://www.w3.org/2000/svg">
<mask id="mask0_2165_5849" style="mask-type:alpha" maskUnits="userSpaceOnUse" x="0" y="0" width="12" height="13">
<path d="M4.875 9.68793C4.80111 9.68803 4.72793 9.67352 4.65967 9.64525C4.5914 9.61697 4.5294 9.57548 4.47722 9.52317L1.85222 6.8984C1.7472 6.79282 1.68834 6.6499 1.68854 6.50098C1.68874 6.35206 1.74798 6.20929 1.85328 6.10399C1.95858 5.99868 2.10134 5.93943 2.25026 5.93923C2.39918 5.93902 2.5421 5.99787 2.64769 6.10289L4.875 8.32992L9.72722 3.47793C9.833 3.37386 9.97562 3.31581 10.124 3.31641C10.2724 3.31702 10.4145 3.37623 10.5195 3.48116C10.6244 3.58609 10.6836 3.72823 10.6842 3.87662C10.6848 4.02501 10.6268 4.16762 10.5227 4.2734L5.27269 9.52321C5.22052 9.57551 5.15853 9.61698 5.09028 9.64525C5.02203 9.67352 4.94887 9.68802 4.875 9.68793Z" fill="black"/>
</mask>
<g mask="url(#mask0_2165_5849)">
<rect y="0.5" width="12" height="12" fill="#CED4DA"/>
</g>
</svg>
