<svg width="16" height="16" viewBox="0 0 16 16" fill="none" xmlns="http://www.w3.org/2000/svg">
<mask id="mask0_2165_4204" style="mask-type:alpha" maskUnits="userSpaceOnUse" x="0" y="0" width="16" height="16">
<path d="M13.0304 11.9693C13.1691 12.1103 13.2466 12.3005 13.2458 12.4983C13.2449 12.6962 13.166 12.8857 13.0261 13.0256C12.8862 13.1655 12.6967 13.2445 12.4988 13.2453C12.301 13.2461 12.1108 13.1687 11.9698 13.0299L8.00008 9.06027L4.03039 13.0299C3.88935 13.1687 3.69919 13.2461 3.50134 13.2453C3.30349 13.2445 3.11397 13.1655 2.97406 13.0256C2.83416 12.8857 2.75521 12.6962 2.7544 12.4983C2.7536 12.3005 2.831 12.1103 2.96976 11.9693L6.93939 7.99959L2.96976 4.0299C2.831 3.88886 2.7536 3.69871 2.7544 3.50085C2.75521 3.303 2.83416 3.11348 2.97406 2.97358C3.11397 2.83367 3.30349 2.75472 3.50134 2.75391C3.69919 2.75311 3.88935 2.83051 4.03039 2.96927L8.00008 6.9389L11.9698 2.96927C12.1108 2.83051 12.301 2.75311 12.4988 2.75391C12.6967 2.75472 12.8862 2.83367 13.0261 2.97358C13.166 3.11348 13.2449 3.303 13.2458 3.50085C13.2466 3.69871 13.1691 3.88886 13.0304 4.0299L9.06076 7.99959L13.0304 11.9693Z" fill="black"/>
</mask>
<g mask="url(#mask0_2165_4204)">
<rect width="16" height="16" fill="#6C757D"/>
</g>
</svg>
