<svg width="20" height="21" viewBox="0 0 20 21" fill="none" xmlns="http://www.w3.org/2000/svg">
<mask id="mask0_2165_3364" style="mask-type:alpha" maskUnits="userSpaceOnUse" x="0" y="0" width="20" height="21">
<path d="M9.99997 15.188C9.87684 15.1881 9.75488 15.1639 9.64112 15.1168C9.52736 15.0697 9.42404 15.0005 9.33708 14.9134L3.08708 8.66335C2.91363 8.48705 2.81687 8.24936 2.81788 8.00204C2.81889 7.75473 2.91758 7.51783 3.09246 7.34295C3.26734 7.16807 3.50424 7.06937 3.75155 7.06837C3.99887 7.06736 4.23656 7.16412 4.41286 7.33757L9.99997 12.9246L15.5871 7.33757C15.7634 7.16412 16.0011 7.06736 16.2484 7.06837C16.4957 7.06937 16.7326 7.16807 16.9075 7.34295C17.0824 7.51783 17.1811 7.75473 17.1821 8.00204C17.1831 8.24936 17.0863 8.48705 16.9129 8.66335L10.6629 14.9134C10.5759 15.0005 10.4726 15.0697 10.3588 15.1168C10.2451 15.1639 10.1231 15.1881 9.99997 15.188Z" fill="black"/>
</mask>
<g mask="url(#mask0_2165_3364)">
<rect y="0.5" width="20" height="20" fill="#6C757D"/>
</g>
</svg>
