<svg width="16" height="16" viewBox="0 0 16 16" fill="none" xmlns="http://www.w3.org/2000/svg">
<mask id="mask0_2165_4418" style="mask-type:alpha" maskUnits="userSpaceOnUse" x="0" y="0" width="16" height="16">
<path d="M8 1.25C6.66498 1.25 5.35994 1.64588 4.2499 2.38758C3.13987 3.12928 2.27471 4.18349 1.76382 5.41689C1.25292 6.65029 1.11925 8.00749 1.3797 9.31686C1.64015 10.6262 2.28303 11.829 3.22703 12.773C4.17104 13.717 5.37377 14.3598 6.68314 14.6203C7.99251 14.8808 9.34971 14.7471 10.5831 14.2362C11.8165 13.7253 12.8707 12.8601 13.6124 11.7501C14.3541 10.6401 14.75 9.33502 14.75 8C14.748 6.21041 14.0362 4.49469 12.7707 3.22926C11.5053 1.96382 9.78959 1.25202 8 1.25ZM8 13.25C6.96165 13.25 5.94662 12.9421 5.08326 12.3652C4.2199 11.7883 3.547 10.9684 3.14964 10.0091C2.75228 9.04978 2.64831 7.99418 2.85088 6.97578C3.05345 5.95738 3.55347 5.02191 4.28769 4.28769C5.02192 3.55346 5.95738 3.05345 6.97578 2.85088C7.99418 2.6483 9.04978 2.75227 10.0091 3.14963C10.9684 3.54699 11.7883 4.2199 12.3652 5.08326C12.9421 5.94661 13.25 6.96165 13.25 8C13.2484 9.3919 12.6948 10.7263 11.7106 11.7106C10.7263 12.6948 9.3919 13.2484 8 13.25ZM9.25 11C9.25 11.1989 9.17098 11.3897 9.03033 11.5303C8.88968 11.671 8.69892 11.75 8.5 11.75H8C7.80109 11.75 7.61032 11.671 7.46967 11.5303C7.32902 11.3897 7.25 11.1989 7.25 11V8.45731C7.0832 8.39831 6.94262 8.28225 6.85311 8.12963C6.7636 7.97702 6.73091 7.79768 6.76082 7.62329C6.79074 7.44891 6.88133 7.29072 7.01659 7.17666C7.15185 7.06261 7.32307 7.00003 7.5 7H8C8.19892 7 8.38968 7.07902 8.53033 7.21967C8.67098 7.36032 8.75 7.55109 8.75 7.75V10.2926C8.89625 10.3444 9.02285 10.4402 9.1124 10.5669C9.20194 10.6935 9.25001 10.8449 9.25 11ZM6.87494 5.25C6.87494 5.05222 6.93359 4.85888 7.04347 4.69443C7.15335 4.52998 7.30953 4.40181 7.49226 4.32612C7.67498 4.25043 7.87605 4.23063 8.07003 4.26921C8.26401 4.3078 8.44219 4.40304 8.58205 4.54289C8.7219 4.68275 8.81714 4.86093 8.85573 5.05491C8.89431 5.24889 8.87451 5.44996 8.79882 5.63268C8.72313 5.81541 8.59496 5.97159 8.43051 6.08147C8.26606 6.19135 8.07272 6.25 7.87494 6.25C7.60972 6.25 7.35537 6.14464 7.16783 5.95711C6.9803 5.76957 6.87494 5.51522 6.87494 5.25Z" fill="black"/>
</mask>
<g mask="url(#mask0_2165_4418)">
<rect width="16" height="16" fill="white"/>
</g>
</svg>
