<svg width="16" height="16" viewBox="0 0 16 16" fill="none" xmlns="http://www.w3.org/2000/svg">
<mask id="mask0_2165_6637" style="mask-type:alpha" maskUnits="userSpaceOnUse" x="0" y="0" width="16" height="16">
<path d="M9.99997 13.7496C9.90146 13.7497 9.8039 13.7304 9.71289 13.6927C9.62188 13.655 9.53922 13.5996 9.46965 13.5299L4.46965 8.5299C4.32901 8.38925 4.25 8.19849 4.25 7.99959C4.25 7.80068 4.32901 7.60993 4.46965 7.46927L9.46965 2.46927C9.61069 2.33051 9.80085 2.25311 9.9987 2.25391C10.1966 2.25472 10.3861 2.33367 10.526 2.47358C10.6659 2.61348 10.7448 2.803 10.7456 3.00085C10.7464 3.1987 10.669 3.38886 10.5303 3.5299L6.06065 7.99959L10.5303 12.4693C10.6352 12.5742 10.7066 12.7078 10.7355 12.8533C10.7645 12.9988 10.7496 13.1496 10.6928 13.2866C10.6361 13.4236 10.54 13.5408 10.4166 13.6232C10.2933 13.7056 10.1483 13.7496 9.99997 13.7496Z" fill="black"/>
</mask>
<g mask="url(#mask0_2165_6637)">
<rect width="16" height="16" fill="#6C757D"/>
</g>
</svg>
