<svg width="20" height="21" viewBox="0 0 20 21" fill="none" xmlns="http://www.w3.org/2000/svg">
<mask id="mask0_2165_3357" style="mask-type:alpha" maskUnits="userSpaceOnUse" x="0" y="0" width="20" height="21">
<path d="M10 5.1875C9.32013 5.1875 8.65552 5.38911 8.09023 5.76682C7.52493 6.14454 7.08434 6.6814 6.82416 7.30953C6.56399 7.93765 6.49591 8.62881 6.62855 9.29562C6.76119 9.96243 7.08858 10.5749 7.56932 11.0557C8.05006 11.5364 8.66257 11.8638 9.32938 11.9964C9.99619 12.1291 10.6874 12.061 11.3155 11.8008C11.9436 11.5407 12.4805 11.1001 12.8582 10.5348C13.2359 9.96948 13.4375 9.30487 13.4375 8.625C13.4365 7.71363 13.074 6.83989 12.4295 6.19546C11.7851 5.55103 10.9114 5.18853 10 5.1875ZM10 10.1875C9.69097 10.1875 9.38887 10.0959 9.13192 9.92417C8.87497 9.75248 8.6747 9.50845 8.55644 9.22294C8.43818 8.93743 8.40723 8.62327 8.46752 8.32017C8.52781 8.01708 8.67663 7.73866 8.89515 7.52014C9.11367 7.30163 9.39208 7.15281 9.69517 7.09252C9.99827 7.03223 10.3124 7.06318 10.5979 7.18144C10.8835 7.2997 11.1275 7.49997 11.2992 7.75692C11.4709 8.01387 11.5625 8.31597 11.5625 8.625C11.562 9.03926 11.3973 9.43642 11.1044 9.72935C10.8114 10.0223 10.4143 10.187 10 10.1875ZM10 1.4375C8.09442 1.43965 6.2675 2.19759 4.92005 3.54504C3.57259 4.8925 2.81465 6.71942 2.8125 8.625C2.8125 14.6686 9.19078 19.203 9.46234 19.393C9.61994 19.5033 9.80764 19.5625 10 19.5625C10.1924 19.5625 10.3801 19.5033 10.5377 19.393C11.7453 18.5037 12.8503 17.483 13.8324 16.3495C16.0273 13.8254 17.1875 11.1543 17.1875 8.625C17.1853 6.71942 16.4274 4.8925 15.08 3.54504C13.7325 2.19759 11.9056 1.43965 10 1.4375ZM12.4455 15.087C11.7006 15.9425 10.8823 16.7313 10 17.4442C9.11769 16.7313 8.29942 15.9425 7.55453 15.087C6.24656 13.5755 4.6875 11.2273 4.6875 8.625C4.6875 7.21604 5.24721 5.86478 6.2435 4.86849C7.23978 3.87221 8.59104 3.3125 10 3.3125C11.409 3.3125 12.7602 3.87221 13.7565 4.86849C14.7528 5.86478 15.3125 7.21604 15.3125 8.625C15.3125 11.2273 13.7534 13.5755 12.4455 15.087Z" fill="black"/>
</mask>
<g mask="url(#mask0_2165_3357)">
<rect y="0.5" width="20" height="20" fill="#007296"/>
</g>
</svg>
