<svg width="16" height="16" viewBox="0 0 16 16" fill="none" xmlns="http://www.w3.org/2000/svg">
<mask id="mask0_2165_6651" style="mask-type:alpha" maskUnits="userSpaceOnUse" x="0" y="0" width="16" height="16">
<path d="M11.8781 7.795C11.9498 7.86561 12.0067 7.94951 12.0456 8.04188C12.0844 8.13426 12.1044 8.23331 12.1044 8.33333C12.1044 8.43336 12.0844 8.5324 12.0456 8.62478C12.0067 8.71716 11.9498 8.80106 11.8781 8.87167L7.26274 13.4317C7.11758 13.5732 6.92183 13.6526 6.71787 13.6526C6.51391 13.6526 6.31816 13.5732 6.173 13.4317C6.10128 13.3611 6.04438 13.2772 6.00556 13.1848C5.96673 13.0924 5.94675 12.9934 5.94675 12.8933C5.94675 12.7933 5.96673 12.6943 6.00556 12.6019C6.04438 12.5095 6.10128 12.4256 6.173 12.355L9.47428 9.09333H2.10248C1.89847 9.09333 1.70281 9.01326 1.55855 8.87073C1.4143 8.72821 1.33325 8.5349 1.33325 8.33333C1.33325 8.13177 1.4143 7.93846 1.55855 7.79593C1.70281 7.6534 1.89847 7.57333 2.10248 7.57333H9.47428L6.173 4.31167C6.02849 4.16889 5.9473 3.97525 5.9473 3.77333C5.9473 3.67336 5.96723 3.57436 6.00596 3.48199C6.04468 3.38962 6.10144 3.30569 6.173 3.235C6.24455 3.16431 6.3295 3.10823 6.42299 3.06997C6.51647 3.03171 6.61668 3.01201 6.71787 3.01201C6.92223 3.01201 7.11823 3.09223 7.26274 3.235L11.8781 7.795ZM13.8974 2C13.6933 2 13.4977 2.08007 13.3534 2.2226C13.2092 2.36513 13.1281 2.55844 13.1281 2.76V13.9067C13.1281 14.1082 13.2092 14.3015 13.3534 14.4441C13.4977 14.5866 13.6933 14.6667 13.8974 14.6667C14.1014 14.6667 14.297 14.5866 14.4413 14.4441C14.5855 14.3015 14.6666 14.1082 14.6666 13.9067V2.76C14.6666 2.55844 14.5855 2.36513 14.4413 2.2226C14.297 2.08007 14.1014 2 13.8974 2Z" fill="black"/>
</mask>
<g mask="url(#mask0_2165_6651)">
<rect width="16" height="16" fill="#6C757D"/>
</g>
</svg>
