<svg width="16" height="16" viewBox="0 0 16 16" fill="none" xmlns="http://www.w3.org/2000/svg">
<mask id="mask0_2165_6644" style="mask-type:alpha" maskUnits="userSpaceOnUse" x="0" y="0" width="16" height="16">
<path d="M14.6666 8.33333C14.6666 8.5349 14.5855 8.7282 14.4413 8.87073C14.297 9.01326 14.1014 9.09333 13.8974 9.09333H6.52556L9.82684 12.355C9.89855 12.4256 9.95545 12.5095 9.99428 12.6019C10.0331 12.6943 10.0531 12.7933 10.0531 12.8933C10.0531 12.9934 10.0331 13.0924 9.99428 13.1848C9.95545 13.2772 9.89855 13.3611 9.82684 13.4317C9.68168 13.5732 9.48593 13.6526 9.28197 13.6526C9.07801 13.6526 8.88226 13.5732 8.7371 13.4317L4.12171 8.87167C4.05 8.80106 3.9931 8.71716 3.95428 8.62478C3.91545 8.5324 3.89547 8.43336 3.89547 8.33333C3.89547 8.2333 3.91545 8.13426 3.95428 8.04188C3.9931 7.9495 4.05 7.8656 4.12171 7.795L8.7371 3.235C8.88161 3.09223 9.0776 3.01201 9.28197 3.01201C9.38316 3.01201 9.48336 3.03171 9.57685 3.06997C9.67034 3.10823 9.75529 3.1643 9.82684 3.235C9.8984 3.30569 9.95516 3.38962 9.99388 3.48199C10.0326 3.57436 10.0525 3.67336 10.0525 3.77333C10.0525 3.87331 10.0326 3.97231 9.99388 4.06468C9.95516 4.15704 9.8984 4.24097 9.82684 4.31167L6.52556 7.57333H13.8974C14.1014 7.57333 14.297 7.6534 14.4413 7.79593C14.5855 7.93846 14.6666 8.13177 14.6666 8.33333Z" fill="black"/>
<path d="M2.10248 14.6667C1.89847 14.6667 1.70281 14.5866 1.55855 14.4441C1.4143 14.3015 1.33325 14.1082 1.33325 13.9067V2.76C1.33325 2.55844 1.4143 2.36513 1.55855 2.2226C1.70281 2.08007 1.89847 2 2.10248 2C2.3065 2 2.50215 2.08007 2.64641 2.2226C2.79067 2.36513 2.87171 2.55844 2.87171 2.76V13.9067C2.87171 14.1082 2.79067 14.3015 2.64641 14.4441C2.50215 14.5866 2.3065 14.6667 2.10248 14.6667Z" fill="black"/>
</mask>
<g mask="url(#mask0_2165_6644)">
<rect width="16" height="16" fill="#6C757D"/>
</g>
</svg>
