<svg width="16" height="16" viewBox="0 0 16 16" fill="none" xmlns="http://www.w3.org/2000/svg">
<mask id="mask0_2165_6658" style="mask-type:alpha" maskUnits="userSpaceOnUse" x="0" y="0" width="16" height="16">
<path d="M5.99997 13.7496C5.85163 13.7496 5.70664 13.7056 5.58331 13.6232C5.45998 13.5408 5.36385 13.4236 5.30709 13.2866C5.25033 13.1496 5.23547 12.9988 5.26441 12.8533C5.29335 12.7078 5.36477 12.5742 5.46965 12.4693L9.93928 7.99959L5.46965 3.5299C5.33089 3.38886 5.25348 3.1987 5.25429 3.00085C5.2551 2.803 5.33405 2.61348 5.47395 2.47358C5.61386 2.33367 5.80338 2.25472 6.00123 2.25391C6.19908 2.25311 6.38924 2.33051 6.53028 2.46927L11.5303 7.46927C11.6709 7.60993 11.7499 7.80068 11.7499 7.99959C11.7499 8.19849 11.6709 8.38925 11.5303 8.5299L6.53028 13.5299C6.46071 13.5996 6.37805 13.655 6.28704 13.6927C6.19604 13.7304 6.09847 13.7497 5.99997 13.7496Z" fill="black"/>
</mask>
<g mask="url(#mask0_2165_6658)">
<rect width="16" height="16" fill="#6C757D"/>
</g>
</svg>
