<svg width="20" height="21" viewBox="0 0 20 21" fill="none" xmlns="http://www.w3.org/2000/svg">
    <mask id="mask0_2165_1536" style="mask-type:alpha" maskUnits="userSpaceOnUse" x="0" y="0" width="20" height="21">
        <path d="M10.0288 12.8747C10.6998 12.3231 11.181 11.5831 11.4072 10.7552C11.6333 9.9273 11.5935 9.05145 11.2931 8.2464C10.9926 7.44136 10.4461 6.74606 9.72765 6.25478C9.00917 5.7635 8.15348 5.5 7.27657 5.5C6.39967 5.5 5.54398 5.7635 4.8255 6.25478C4.10703 6.74606 3.56053 7.44136 3.26009 8.2464C2.95965 9.05145 2.91982 9.9273 3.14598 10.7552C3.37214 11.5831 3.85336 12.3231 4.52439 12.8747C3.43611 13.356 2.49962 14.1133 1.81229 15.068C1.69031 15.2378 1.64219 15.4479 1.67851 15.6522C1.71483 15.8566 1.83261 16.0385 2.00602 16.1581C2.14045 16.252 2.30169 16.3023 2.46694 16.3018C2.59547 16.3021 2.72218 16.272 2.83619 16.214C2.95021 16.1561 3.04814 16.0719 3.12158 15.9688C3.58993 15.317 4.21201 14.7849 4.93522 14.4176C5.65843 14.0503 6.46151 13.8585 7.27657 13.8585C8.09164 13.8585 8.89472 14.0503 9.61793 14.4176C10.3411 14.7849 10.9632 15.317 11.4316 15.9688C11.4896 16.0585 11.5657 16.1357 11.6553 16.1958C11.7448 16.2559 11.8459 16.2975 11.9524 16.3182C12.0589 16.339 12.1686 16.3383 12.2748 16.3164C12.3811 16.2944 12.4817 16.2516 12.5704 16.1905C12.6592 16.1294 12.7344 16.0513 12.7914 15.961C12.8484 15.8706 12.886 15.7699 12.9019 15.665C12.9178 15.56 12.9118 15.4529 12.8841 15.3503C12.8564 15.2477 12.8077 15.1517 12.7409 15.068C12.0535 14.1133 11.117 13.356 10.0288 12.8747ZM4.60456 9.68265C4.60456 9.16622 4.76127 8.66139 5.05487 8.232C5.34848 7.80261 5.76579 7.46794 6.25404 7.27031C6.74228 7.07269 7.27954 7.02098 7.79786 7.12173C8.31618 7.22248 8.79229 7.47116 9.16598 7.83633C9.53967 8.20149 9.79415 8.66675 9.89725 9.17325C10.0004 9.67975 9.94744 10.2048 9.7452 10.6819C9.54296 11.159 9.20048 11.5668 8.76107 11.8537C8.32166 12.1406 7.80505 12.2937 7.27657 12.2937C6.56791 12.2937 5.88827 12.0186 5.38717 11.529C4.88607 11.0393 4.60456 10.3751 4.60456 9.68265ZM17.9914 16.1581C17.8569 16.252 17.6957 16.3023 17.5305 16.3018C17.4021 16.301 17.2758 16.2705 17.162 16.2126C17.0481 16.1547 16.95 16.0711 16.8758 15.9688C16.4065 15.3181 15.7841 14.787 15.0611 14.4201C14.3381 14.0532 13.5355 13.8613 12.7208 13.8604C12.5082 13.8604 12.3043 13.7779 12.154 13.631C12.0037 13.4841 11.9192 13.2848 11.9192 13.0771C11.9192 12.8693 12.0037 12.6701 12.154 12.5232C12.3043 12.3763 12.5082 12.2937 12.7208 12.2937C13.4295 12.2937 14.1091 12.0186 14.6102 11.529C15.1113 11.0393 15.3928 10.3751 15.3928 9.68265C15.3928 8.99014 15.1113 8.326 14.6102 7.83633C14.1091 7.34665 13.4295 7.07156 12.7208 7.07156C12.4768 7.07111 12.234 7.10407 11.9994 7.16947C11.8975 7.19917 11.7906 7.20876 11.6849 7.1977C11.5791 7.18663 11.4767 7.15513 11.3836 7.10501C11.2905 7.0549 11.2085 6.98719 11.1424 6.90581C11.0763 6.82443 11.0274 6.73102 10.9986 6.631C10.9698 6.53099 10.9616 6.42638 10.9746 6.32326C10.9876 6.22014 11.0214 6.12057 11.0742 6.03036C11.1269 5.94014 11.1974 5.86107 11.2817 5.79775C11.366 5.73444 11.4624 5.68815 11.5652 5.66157C11.941 5.557 12.33 5.50427 12.7208 5.5049C13.5983 5.50241 14.4553 5.76425 15.175 6.25476C15.8947 6.74528 16.4423 7.44064 16.7431 8.24616C17.0439 9.05168 17.0834 9.92823 16.8561 10.7564C16.6288 11.5847 16.1459 12.3243 15.473 12.8747C16.5613 13.356 17.4978 14.1133 18.1851 15.068C18.2464 15.1518 18.29 15.2466 18.3134 15.347C18.3369 15.4473 18.3397 15.5513 18.3216 15.6527C18.3036 15.7541 18.2651 15.851 18.2084 15.9378C18.1517 16.0246 18.078 16.0995 17.9914 16.1581V16.1581Z" fill="black" />
    </mask>
    <g mask="url(#mask0_2165_1536)">
        <rect y="0.5" width="20" height="20" fill="#007296" />
    </g>
</svg>