<svg width="20" height="20" viewBox="0 0 20 20" fill="none" xmlns="http://www.w3.org/2000/svg">
<mask id="mask0_2165_8045" style="mask-type:alpha" maskUnits="userSpaceOnUse" x="0" y="0" width="20" height="20">
<path d="M18.1622 16.8365L14.9842 13.6585C16.1557 12.1499 16.7082 10.2515 16.5293 8.34986C16.3503 6.4482 15.4533 4.68624 14.0209 3.42267C12.5886 2.1591 10.7285 1.48893 8.81934 1.54859C6.91021 1.60825 5.09559 2.39325 3.7449 3.74378C2.3942 5.09432 1.60899 6.90885 1.5491 8.81796C1.48922 10.7271 2.15918 12.5873 3.42257 14.0198C4.68597 15.4523 6.44783 16.3495 8.34946 16.5287C10.2511 16.7079 12.1495 16.1556 13.6583 14.9843L16.8363 18.1622C16.9231 18.2505 17.0265 18.3206 17.1406 18.3687C17.2546 18.4167 17.3771 18.4417 17.5008 18.4422C17.6246 18.4428 17.7472 18.4187 17.8616 18.3716C17.9761 18.3245 18.08 18.2552 18.1675 18.1677C18.255 18.0802 18.3244 17.9762 18.3715 17.8618C18.4186 17.7473 18.4426 17.6247 18.4421 17.5009C18.4416 17.3772 18.4166 17.2548 18.3686 17.1407C18.3205 17.0267 18.2503 16.9233 18.1621 16.8365H18.1622ZM3.4372 9.06178C3.4372 7.94926 3.7671 6.86172 4.38518 5.9367C5.00326 5.01167 5.88177 4.2907 6.9096 3.86496C7.93744 3.43922 9.06844 3.32782 10.1596 3.54486C11.2507 3.76191 12.253 4.29763 13.0397 5.0843C13.8263 5.87098 14.3621 6.87325 14.5791 7.9644C14.7962 9.05554 14.6848 10.1865 14.259 11.2144C13.8333 12.2422 13.1123 13.1207 12.1873 13.7388C11.2623 14.3569 10.1747 14.6868 9.0622 14.6868C7.57087 14.6851 6.1411 14.0919 5.08657 13.0374C4.03204 11.9829 3.43887 10.5531 3.4372 9.06178Z" fill="black"/>
</mask>
<g mask="url(#mask0_2165_8045)">
<rect width="20" height="20" fill="#ADB5BD"/>
</g>
</svg>
