<svg width="20" height="21" viewBox="0 0 20 21" fill="none" xmlns="http://www.w3.org/2000/svg">
<mask id="mask0_2165_7965" style="mask-type:alpha" maskUnits="userSpaceOnUse" x="0" y="0" width="20" height="21">
<path d="M16.25 13.9375C16.1268 13.9376 16.0049 13.9134 15.8911 13.8663C15.7774 13.8192 15.674 13.75 15.5871 13.6628L9.99997 8.07582L4.41286 13.6628C4.23656 13.8363 3.99887 13.9331 3.75155 13.932C3.50424 13.931 3.26734 13.8324 3.09246 13.6575C2.91758 13.4826 2.81889 13.2457 2.81788 12.9984C2.81687 12.7511 2.91363 12.5134 3.08708 12.3371L9.33708 6.08707C9.5129 5.91126 9.75134 5.8125 9.99997 5.8125C10.2486 5.8125 10.4871 5.91126 10.6629 6.08707L16.9129 12.3371C17.044 12.4682 17.1332 12.6352 17.1694 12.8171C17.2056 12.9989 17.187 13.1874 17.1161 13.3587C17.0451 13.53 16.925 13.6764 16.7708 13.7794C16.6166 13.8825 16.4354 13.9374 16.25 13.9375Z" fill="black"/>
</mask>
<g mask="url(#mask0_2165_7965)">
<rect y="0.5" width="20" height="20" fill="#007296"/>
</g>
</svg>
