<svg width="79" height="105" viewBox="0 0 79 105" fill="none" xmlns="http://www.w3.org/2000/svg">
<path d="M4.55774 64.9688H74.7098V93.7799C74.7098 96.7186 73.5434 99.5369 71.4672 101.615C69.3911 103.693 66.5752 104.86 63.6391 104.86H15.6284C12.6923 104.86 9.87642 103.693 7.80027 101.615C5.72411 99.5369 4.55774 96.7186 4.55774 93.7799V64.9688Z" stroke="#231F20" stroke-width="0.1256" stroke-miterlimit="10"/>
<path d="M4.55664 64.9705L14.3254 58.3379H19.9914" stroke="#231F20" stroke-width="0.1256" stroke-miterlimit="10"/>
<path d="M54.9948 58.2734H64.7525L74.7094 64.9704" stroke="#231F20" stroke-width="0.1256" stroke-miterlimit="10"/>
<path d="M14.4509 59.3477V63.4537" stroke="#231F20" stroke-width="0.1256" stroke-miterlimit="10"/>
<path d="M64.6509 59.3477V63.4537" stroke="#231F20" stroke-width="0.1256" stroke-miterlimit="10"/>
<path d="M33.196 83.419C33.196 83.419 34.5688 81.07 35.9416 83.419" stroke="#231F20" stroke-width="0.1256" stroke-miterlimit="10"/>
<path d="M42.4623 83.419C42.4623 83.419 43.835 81.07 45.2078 83.419" stroke="#231F20" stroke-width="0.1256" stroke-miterlimit="10"/>
<path d="M32.9121 86.8105C34.6233 88.4677 36.8988 89.4137 39.2795 89.4576C41.6602 89.5016 43.969 88.6403 45.7402 87.0475" stroke="#231F20" stroke-width="0.1256" stroke-miterlimit="10"/>
<path d="M30.1035 87.7737C30.7309 87.7737 31.2396 87.0666 31.2396 86.1945C31.2396 85.3223 30.7309 84.6152 30.1035 84.6152C29.476 84.6152 28.9674 85.3223 28.9674 86.1945C28.9674 87.0666 29.476 87.7737 30.1035 87.7737Z" fill="#231F20"/>
<path d="M48.2174 87.7737C48.8448 87.7737 49.3535 87.0666 49.3535 86.1945C49.3535 85.3223 48.8448 84.6152 48.2174 84.6152C47.5899 84.6152 47.0813 85.3223 47.0813 86.1945C47.0813 87.0666 47.5899 87.7737 48.2174 87.7737Z" fill="#231F20"/>
<path d="M31.3973 26.5712C31.3973 26.5712 18.2852 21.265 13.9303 13.4004C13.9303 13.4004 11.5634 28.3241 0.155518 31.1194C0.155518 31.1194 13.2676 49.3595 36.7463 50.0228C36.7463 50.0228 45.1722 44.527 47.2076 37.6574" stroke="#231F20" stroke-width="0.08373" stroke-miterlimit="10"/>
<path d="M19.6895 22.9375C19.6895 22.9375 17.1649 32.8551 9.02307 35.7609" stroke="#231F20" stroke-width="0.08373" stroke-miterlimit="10"/>
<path d="M24.8824 26.6504C24.8824 26.6504 22.3579 36.568 14.2161 39.4738" stroke="#231F20" stroke-width="0.08373" stroke-miterlimit="10"/>
<path d="M30.536 30.0996C30.536 30.0996 28.0114 40.0172 19.8696 42.923" stroke="#231F20" stroke-width="0.08373" stroke-miterlimit="10"/>
<path d="M35.9967 32.877C35.9967 32.877 33.4721 42.7945 25.3303 45.7003" stroke="#231F20" stroke-width="0.08373" stroke-miterlimit="10"/>
<path d="M30.2928 19.7791C30.2928 19.7791 33.3855 32.0971 42.537 37.0875C42.537 37.0875 63.6174 37.656 78.828 16.8733C78.828 16.8733 68.7928 15.989 64.6272 0.259766C64.6273 0.259766 58.7576 11.9461 30.2928 19.7791Z" stroke="#231F20" stroke-width="0.08373" stroke-miterlimit="10"/>
<path d="M69.8997 22.2258C69.8997 22.2258 60.6284 17.909 59.2805 9.36328" stroke="#231F20" stroke-width="0.08373" stroke-miterlimit="10"/>
<path d="M64.5902 25.5735C64.5902 25.5735 55.3188 21.2566 53.9709 12.7109" stroke="#231F20" stroke-width="0.08373" stroke-miterlimit="10"/>
<path d="M59.2806 29.3684C59.2806 29.3684 50.0092 25.0515 48.6614 16.5059" stroke="#231F20" stroke-width="0.08373" stroke-miterlimit="10"/>
<path d="M53.6342 32.0051C53.6342 32.0051 44.3628 27.6883 43.015 19.1426" stroke="#231F20" stroke-width="0.08373" stroke-miterlimit="10"/>
<path opacity="0.17" d="M74.7095 64.9684H4.55798L14.3248 58.3365L18.6796 58.3308L19.9888 58.3291C21.5694 60.6634 23.3432 62.8607 25.2912 64.898H41.4896C46.2097 63.1881 50.7308 60.9713 54.9737 58.2864L64.7535 58.2734L74.7095 64.9684Z" fill="#231F20"/>
<path d="M53.4089 36.1406C57.3839 48.2688 64.9593 49.1706 64.9593 49.1706C62.2368 52.8304 58.8305 55.9265 54.9293 58.2872C50.6315 60.9851 46.063 63.2247 41.2987 64.9692" stroke="#231F20" stroke-width="0.08373" stroke-miterlimit="10"/>
<path d="M57.0733 54.1575C57.0733 54.1575 47.802 49.8406 46.4541 41.2949" stroke="#231F20" stroke-width="0.08373" stroke-miterlimit="10"/>
<path d="M40.0124 62.884C40.0124 62.884 30.741 58.5672 29.3932 50.0215" stroke="#231F20" stroke-width="0.08373" stroke-miterlimit="10"/>
<path d="M41.7797 47.543C41.7797 47.543 45.251 55.3128 50.4895 56.8288" stroke="#231F20" stroke-width="0.08373" stroke-miterlimit="10"/>
<path d="M36.4309 51.041C36.4309 51.041 39.9022 58.8108 45.1407 60.3269" stroke="#231F20" stroke-width="0.08373" stroke-miterlimit="10"/>
<path d="M25.291 64.8986C20.5123 60.6544 17.4064 54.8406 16.5338 48.5061L20.9834 47.5586" stroke="#231F20" stroke-width="0.08373" stroke-miterlimit="10"/>
</svg>
