<svg width="121" height="116" viewBox="0 0 121 116" fill="none" xmlns="http://www.w3.org/2000/svg">
<g clip-path="url(#clip0_1833_17866)">
<path d="M66.811 41.6228H40.9489C40.3827 41.6245 39.8236 41.4968 39.3141 41.2494C38.8046 41.002 38.3581 40.6415 38.0087 40.1952V40.1952C37.6528 39.7447 37.4043 39.2188 37.282 38.6575C37.1597 38.0962 37.1668 37.5144 37.3028 36.9563C39.6863 26.954 39.6863 16.5299 37.3026 6.52761C37.1667 5.96953 37.1597 5.38775 37.282 4.82653C37.4043 4.26532 37.6528 3.73945 38.0086 3.28894C38.358 2.84262 38.8045 2.48205 39.314 2.23467C39.8236 1.98728 40.3827 1.8596 40.9489 1.86135H66.811C67.7039 1.86392 68.5669 2.18395 69.2463 2.76444C69.9257 3.34494 70.3774 4.1482 70.5209 5.03116C72.223 16.1065 72.223 27.3776 70.5209 38.4529C70.3774 39.3359 69.9257 40.1392 69.2463 40.7197C68.5669 41.3002 67.7039 41.6202 66.811 41.6228V41.6228Z" fill="#E6E6E6"/>
<path d="M40.9488 3.81056C40.6769 3.80964 40.4084 3.87087 40.1636 3.98959C39.9189 4.1083 39.7044 4.28137 39.5365 4.49564C39.3636 4.71517 39.243 4.97132 39.1838 5.2446C39.1245 5.51788 39.1283 5.80109 39.1948 6.07269C41.6497 16.3739 41.6497 27.1094 39.1949 37.4107C39.1284 37.6822 39.1246 37.9654 39.1838 38.2386C39.243 38.5118 39.3636 38.7679 39.5364 38.9874L39.5366 38.9876C39.7045 39.2019 39.9189 39.375 40.1636 39.4937C40.4084 39.6125 40.6769 39.6737 40.9488 39.6728H66.8109C67.2397 39.6729 67.6546 39.5206 67.9818 39.2429C68.309 38.9652 68.5272 38.5802 68.5975 38.1564C70.2693 27.2773 70.2693 16.206 68.5975 5.327C68.5272 4.9032 68.309 4.51816 67.9818 4.24046C67.6546 3.96275 67.2397 3.81041 66.8109 3.81055L40.9488 3.81056Z" fill="white"/>
<path d="M61.1673 13.1843H47.5959C47.08 13.1837 46.5854 12.9781 46.2206 12.6127C45.8558 12.2472 45.6506 11.7517 45.65 11.2348V10.4729C45.6506 9.95608 45.8558 9.46054 46.2206 9.09506C46.5854 8.72958 47.08 8.524 47.5959 8.52344H61.1673C61.6832 8.524 62.1778 8.72958 62.5426 9.09506C62.9074 9.46054 63.1126 9.95608 63.1131 10.4729V11.2348C63.1126 11.7517 62.9074 12.2472 62.5426 12.6127C62.1778 12.9782 61.6832 13.1837 61.1673 13.1843Z" fill="#E6E6E6"/>
<path d="M61.1673 22.8112H47.5959C47.08 22.8107 46.5854 22.6051 46.2206 22.2396C45.8558 21.8741 45.6506 21.3786 45.65 20.8617V20.0999C45.6506 19.583 45.8558 19.0875 46.2206 18.722C46.5854 18.3565 47.08 18.151 47.5959 18.1504H61.1673C61.6832 18.151 62.1778 18.3565 62.5426 18.722C62.9074 19.0875 63.1126 19.583 63.1131 20.0999V20.8617C63.1126 21.3786 62.9074 21.8741 62.5426 22.2396C62.1778 22.6051 61.6832 22.8107 61.1673 22.8112Z" fill="#E6E6E6"/>
<path d="M61.1673 32.4382H47.5959C47.08 32.4376 46.5854 32.232 46.2206 31.8666C45.8558 31.5011 45.6506 31.0055 45.65 30.4887V29.7268C45.6506 29.21 45.8558 28.7144 46.2206 28.349C46.5854 27.9835 47.08 27.7779 47.5959 27.7773H61.1673C61.6832 27.7779 62.1778 27.9835 62.5426 28.349C62.9074 28.7144 63.1126 29.21 63.1131 29.7268V30.4887C63.1126 31.0055 62.9074 31.5011 62.5426 31.8666C62.1778 32.232 61.6832 32.4376 61.1673 32.4382V32.4382Z" fill="#E6E6E6"/>
<path d="M115.46 66.3181H89.5974C89.0313 66.3198 88.4722 66.1921 87.9627 65.9447C87.4532 65.6973 87.0067 65.3368 86.6572 64.8905V64.8905C86.3014 64.44 86.0529 63.9141 85.9305 63.3528C85.8082 62.7916 85.8153 62.2097 85.9513 61.6516C88.3349 51.6493 88.3348 41.2253 85.9512 31.2229C85.8153 30.6648 85.8082 30.0831 85.9306 29.5219C86.0529 28.9606 86.3014 28.4348 86.6571 27.9843C87.0066 27.5379 87.4531 27.1774 87.9626 26.93C88.4721 26.6826 89.0312 26.5549 89.5974 26.5567H115.46C116.352 26.5592 117.215 26.8793 117.895 27.4598C118.574 28.0402 119.026 28.8435 119.169 29.7265C120.872 40.8018 120.872 52.0729 119.169 63.1482C119.026 64.0312 118.574 64.8345 117.895 65.415C117.215 65.9955 116.352 66.3155 115.46 66.3181Z" fill="#E6E6E6"/>
<path d="M89.5975 28.5059C89.3256 28.505 89.057 28.5662 88.8123 28.6849C88.5676 28.8036 88.3531 28.9767 88.1852 29.191C88.0123 29.4105 87.8917 29.6666 87.8324 29.9399C87.7732 30.2132 87.777 30.4964 87.8435 30.768C90.2984 41.0692 90.2984 51.8047 87.8436 62.106C87.7771 62.3775 87.7733 62.6607 87.8325 62.9339C87.8916 63.2071 88.0122 63.4632 88.1851 63.6827L88.1853 63.6829C88.3531 63.8972 88.5676 64.0703 88.8123 64.189C89.057 64.3078 89.3256 64.369 89.5975 64.3681H115.46C115.888 64.3683 116.303 64.2159 116.631 63.9382C116.958 63.6605 117.176 63.2755 117.246 62.8517C118.918 51.9726 118.918 40.9013 117.246 30.0223C117.176 29.5985 116.958 29.2135 116.631 28.9358C116.303 28.6581 115.888 28.5057 115.46 28.5059L89.5975 28.5059Z" fill="white"/>
<path d="M63.892 94.4242H38.0299C37.4392 94.426 36.8559 94.2928 36.3243 94.0347C35.7928 93.7766 35.327 93.4004 34.9624 92.9348C34.5913 92.465 34.3322 91.9166 34.2046 91.3314C34.077 90.7461 34.0844 90.1394 34.2262 89.5574C36.6038 79.58 36.6037 69.182 34.226 59.2046C34.0843 58.6226 34.077 58.0159 34.2046 57.4307C34.3322 56.8455 34.5913 56.2971 34.9623 55.8274C35.3269 55.3618 35.7927 54.9856 36.3243 54.7275C36.8559 54.4694 37.4392 54.3361 38.0299 54.3379H63.892C64.8236 54.3407 65.724 54.6747 66.4327 55.2804C67.1415 55.8861 67.6126 56.7242 67.7622 57.6454C69.4668 68.7372 69.4668 80.025 67.7622 91.1167C67.6126 92.0379 67.1415 92.876 66.4327 93.4817C65.724 94.0875 64.8236 94.4215 63.892 94.4242V94.4242Z" fill="#F2F2F2"/>
<path d="M109.816 42.7546H96.2446C95.7287 42.754 95.2341 42.5485 94.8693 42.183C94.5045 41.8175 94.2993 41.322 94.2987 40.8051V40.0433C94.2993 39.5264 94.5045 39.0309 94.8693 38.6654C95.2341 38.2999 95.7287 38.0943 96.2446 38.0938H109.816C110.332 38.0943 110.826 38.2999 111.191 38.6654C111.556 39.0309 111.761 39.5264 111.762 40.0433V40.8051C111.761 41.322 111.556 41.8175 111.191 42.183C110.826 42.5485 110.332 42.754 109.816 42.7546V42.7546Z" fill="#E6E6E6"/>
<path d="M109.816 52.3796H96.2446C95.7287 52.379 95.2341 52.1735 94.8693 51.808C94.5045 51.4425 94.2993 50.947 94.2987 50.4301V49.6683C94.2993 49.1514 94.5045 48.6558 94.8693 48.2904C95.2341 47.9249 95.7287 47.7193 96.2446 47.7188H109.816C110.332 47.7193 110.826 47.9249 111.191 48.2904C111.556 48.6558 111.761 49.1514 111.762 49.6683V50.4301C111.761 50.947 111.556 51.4425 111.191 51.808C110.826 52.1735 110.332 52.379 109.816 52.3796V52.3796Z" fill="#E6E6E6"/>
<path d="M51.0333 81.7202C55.1531 81.7202 58.4928 78.3743 58.4928 74.2468C58.4928 70.1194 55.1531 66.7734 51.0333 66.7734C46.9136 66.7734 43.5739 70.1194 43.5739 74.2468C43.5739 78.3743 46.9136 81.7202 51.0333 81.7202Z" fill="white"/>
<path d="M54.6009 73.2715H52.0063V70.6721C52.0063 70.4135 51.9038 70.1656 51.7213 69.9828C51.5389 69.8 51.2914 69.6973 51.0333 69.6973C50.7753 69.6973 50.5278 69.8 50.3453 69.9828C50.1629 70.1656 50.0604 70.4135 50.0604 70.6721V73.2715H47.4658C47.2077 73.2715 46.9602 73.3742 46.7778 73.557C46.5953 73.7398 46.4928 73.9878 46.4928 74.2463C46.4928 74.5048 46.5953 74.7528 46.7778 74.9356C46.9602 75.1184 47.2077 75.2211 47.4658 75.2211H50.0604V77.8205C50.0604 78.079 50.1629 78.327 50.3453 78.5098C50.5278 78.6926 50.7753 78.7953 51.0333 78.7953C51.2914 78.7953 51.5389 78.6926 51.7213 78.5098C51.9038 78.327 52.0063 78.079 52.0063 77.8205V75.2211H54.6009C54.859 75.2211 55.1064 75.1184 55.2889 74.9356C55.4714 74.7528 55.5739 74.5048 55.5739 74.2463C55.5739 73.9878 55.4714 73.7398 55.2889 73.557C55.1064 73.3742 54.859 73.2715 54.6009 73.2715V73.2715Z" fill="#E6E6E6"/>
<path d="M60.4387 5.52381H46.8171C46.4302 5.52337 46.0592 5.36918 45.7856 5.09506C45.512 4.82095 45.3581 4.44929 45.3577 4.06162V1.46218C45.3581 1.07452 45.512 0.702865 45.7856 0.428746C46.0592 0.154628 46.4302 0.000436887 46.8171 0H60.4387C60.8257 0.000436887 61.1966 0.154628 61.4702 0.428746C61.7439 0.702865 61.8978 1.07452 61.8982 1.46218V4.06162C61.8978 4.44929 61.7439 4.82095 61.4702 5.09506C61.1966 5.36918 60.8257 5.52337 60.4387 5.52381Z" fill="#CCCCCC"/>
<path d="M109.736 30.5433H96.1144C95.7274 30.5429 95.3565 30.3887 95.0829 30.1146C94.8093 29.8405 94.6553 29.4688 94.6549 29.0812V26.4817C94.6553 26.0941 94.8093 25.7224 95.0829 25.4483C95.3565 25.1742 95.7274 25.02 96.1144 25.0195H109.736C110.123 25.02 110.494 25.1742 110.767 25.4483C111.041 25.7224 111.195 26.0941 111.195 26.4817V29.0812C111.195 29.4688 111.041 29.8405 110.767 30.1146C110.494 30.3887 110.123 30.5429 109.736 30.5433Z" fill="#CCCCCC"/>
<path d="M26.7954 115.67L2.91266 105.729C2.38916 105.513 1.92174 105.18 1.54597 104.756C1.17021 104.331 0.895994 103.827 0.7442 103.28C0.588141 102.727 0.560038 102.146 0.66202 101.581C0.764001 101.016 0.99338 100.481 1.3327 100.018C7.36443 91.6974 11.3565 82.0711 12.9858 71.9181C13.074 71.3505 13.2903 70.8105 13.6182 70.3393C13.9461 69.868 14.377 69.4779 14.8781 69.1986C15.3717 68.9208 15.9221 68.7595 16.4874 68.7269C17.0526 68.6943 17.6178 68.7913 18.14 69.0106L42.0228 78.952C42.8464 79.2976 43.5208 79.9249 43.9259 80.7221C44.331 81.5193 44.4405 82.4347 44.2348 83.3053C41.5651 94.1872 37.2486 104.596 31.4353 114.169C30.9647 114.929 30.2399 115.497 29.3902 115.772C28.5405 116.047 27.6209 116.011 26.7954 115.67Z" fill="#E6E6E6"/>
<path d="M17.3933 70.8093C17.1426 70.704 16.8711 70.6573 16.5997 70.6728C16.3282 70.6884 16.0639 70.7658 15.8268 70.8991C15.583 71.0354 15.3735 71.2255 15.2142 71.4551C15.0548 71.6847 14.9498 71.9477 14.9072 72.2241C13.2292 82.6806 9.11785 92.5944 2.90588 101.164C2.74046 101.389 2.62849 101.649 2.5785 101.924C2.52851 102.199 2.54182 102.482 2.61741 102.751L2.6175 102.751C2.69044 103.014 2.82218 103.256 3.00269 103.46C3.18321 103.663 3.40773 103.823 3.65918 103.927L27.5419 113.868C27.9378 114.033 28.3794 114.052 28.7879 113.921C29.1964 113.791 29.5453 113.519 29.7725 113.155C35.4827 103.751 39.7227 93.5269 42.3452 82.8379C42.4425 82.4195 42.3885 81.9801 42.1927 81.5978C41.9969 81.2156 41.6721 80.9154 41.276 80.7507L17.3933 70.8093Z" fill="white"/>
<path d="M30.11 92.941L17.5773 87.7242C17.1011 87.5253 16.7231 87.1454 16.5261 86.6676C16.3292 86.1899 16.3295 85.6534 16.5269 85.1759L16.8187 84.4723C17.0172 83.9953 17.3964 83.6165 17.8733 83.4192C18.3501 83.222 18.8856 83.2222 19.3622 83.42L31.8949 88.6369C32.3711 88.8357 32.7491 89.2157 32.9461 89.6934C33.143 90.1712 33.1427 90.7076 32.9452 91.1852L32.6535 91.8887C32.455 92.3658 32.0758 92.7445 31.5989 92.9418C31.1221 93.1391 30.5866 93.1388 30.11 92.941V92.941Z" fill="#007296"/>
<path d="M26.4233 101.83L13.8906 96.6128C13.4144 96.414 13.0364 96.034 12.8395 95.5563C12.6426 95.0786 12.6429 94.5421 12.8403 94.0645L13.1321 93.361C13.3305 92.8839 13.7098 92.5052 14.1866 92.3079C14.6635 92.1106 15.199 92.1109 15.6756 92.3087L28.2083 97.5256C28.6845 97.7244 29.0625 98.1044 29.2594 98.5821C29.4563 99.0598 29.456 99.5963 29.2586 100.074L28.9669 100.777C28.7684 101.254 28.3891 101.633 27.9123 101.83C27.4354 102.028 26.9 102.027 26.4233 101.83V101.83Z" fill="#007296"/>
<path d="M35.1317 80.4463C34.9441 80.4462 34.7583 80.4097 34.5845 80.3389L21.956 75.2237C21.5974 75.078 21.3112 74.7957 21.1601 74.4389C21.009 74.082 21.0053 73.6797 21.1499 73.3201L22.1225 70.9101C22.2676 70.5506 22.5493 70.2636 22.9057 70.1122C23.262 69.9608 23.6638 69.9573 24.0226 70.1027L36.6511 75.218C37.0097 75.3637 37.2959 75.6459 37.447 76.0028C37.5981 76.3596 37.6018 76.762 37.4572 77.1215L36.4846 79.5315C36.3754 79.8014 36.1883 80.0326 35.9474 80.1955C35.7064 80.3585 35.4225 80.4458 35.1317 80.4463V80.4463Z" fill="#CCCCCC"/>
</g>
<defs>
<clipPath id="clip0_1833_17866">
<rect width="120" height="116" fill="white" transform="translate(0.5)"/>
</clipPath>
</defs>
</svg>
