<svg width="71" height="69" viewBox="0 0 71 69" fill="none" xmlns="http://www.w3.org/2000/svg">
<g clip-path="url(#clip0_1834_15992)">
<path d="M44.9389 15.518H26.0769C25.6471 15.5185 25.235 15.6912 24.9311 15.9981C24.6271 16.305 24.4561 16.7212 24.4556 17.1552V59.4879L24.2394 59.5545L19.6123 60.9855C19.393 61.053 19.1562 61.0299 18.9537 60.9212C18.7513 60.8125 18.5998 60.6272 18.5326 60.4059L4.76893 15.0061C4.70195 14.7847 4.72478 14.5454 4.8324 14.341C4.94002 14.1365 5.12363 13.9835 5.34287 13.9157L12.4733 11.711L33.1446 5.32148L40.275 3.1167C40.3835 3.08298 40.4975 3.07119 40.6106 3.08202C40.7236 3.09285 40.8334 3.12608 40.9337 3.17982C41.034 3.23355 41.1228 3.30672 41.1951 3.39516C41.2673 3.48359 41.3216 3.58554 41.3548 3.69518L44.8729 15.2997L44.9389 15.518Z" fill="#F2F2F2"/>
<path d="M49.0549 15.3006L44.8147 1.31452C44.7441 1.08149 44.6288 0.864775 44.4753 0.676766C44.3218 0.488757 44.1331 0.333139 43.92 0.218803C43.7069 0.104467 43.4736 0.0336524 43.2333 0.0104096C42.9931 -0.0128331 42.7507 0.011951 42.52 0.0833432L32.4951 3.18203L11.8249 9.5726L1.79999 12.6724C1.33428 12.8168 0.944341 13.1419 0.715756 13.5763C0.48717 14.0108 0.438616 14.519 0.580751 14.9896L15.0728 62.7884C15.1883 63.1682 15.4213 63.5007 15.7376 63.737C16.0539 63.9733 16.4369 64.1011 16.8303 64.1015C17.0124 64.1015 17.1935 64.0739 17.3675 64.0196L24.2396 61.8956L24.4557 61.8279V61.5998L24.2396 61.6664L17.3037 63.8111C16.8927 63.9377 16.4487 63.8944 16.0692 63.6908C15.6896 63.4872 15.4056 63.1399 15.2793 62.7251L0.788319 14.9252C0.725748 14.7196 0.70394 14.5037 0.724144 14.2896C0.744348 14.0756 0.806165 13.8676 0.906059 13.6777C1.00595 13.4878 1.14196 13.3197 1.3063 13.183C1.47063 13.0462 1.66006 12.9436 1.86374 12.8809L11.8887 9.78107L32.5589 3.3916L42.5838 0.291816C42.7383 0.244206 42.8989 0.219931 43.0605 0.219779C43.4071 0.220565 43.7444 0.333418 44.0229 0.541809C44.3014 0.750201 44.5066 1.04318 44.6083 1.37783L48.829 15.3006L48.896 15.5189H49.1208L49.0549 15.3006Z" fill="#495057"/>
<path d="M13.76 13.9513C13.5517 13.9511 13.3489 13.8836 13.1814 13.7585C13.0139 13.6334 12.8904 13.4575 12.8292 13.2564L11.4371 8.66436C11.3996 8.54101 11.3867 8.41143 11.3988 8.28301C11.411 8.15459 11.4482 8.02986 11.5081 7.91593C11.568 7.80201 11.6496 7.70112 11.7481 7.61903C11.8467 7.53694 11.9603 7.47526 12.0824 7.43752L31.0989 1.55844C31.3456 1.48242 31.612 1.50835 31.8398 1.63053C32.0676 1.7527 32.2381 1.96115 32.3138 2.21012L33.706 6.80219C33.7812 7.05131 33.7556 7.32039 33.6346 7.55039C33.5136 7.7804 33.3072 7.95255 33.0607 8.02909L14.0442 13.9082C13.9521 13.9367 13.8563 13.9512 13.76 13.9513Z" fill="#007296"/>
<path d="M21.0528 4.9069C22.2467 4.9069 23.2145 3.92957 23.2145 2.72396C23.2145 1.51835 22.2467 0.541016 21.0528 0.541016C19.8589 0.541016 18.8911 1.51835 18.8911 2.72396C18.8911 3.92957 19.8589 4.9069 21.0528 4.9069Z" fill="#007296"/>
<path d="M21.0528 4.10641C21.8088 4.10641 22.4217 3.48753 22.4217 2.7241C22.4217 1.96068 21.8088 1.3418 21.0528 1.3418C20.2968 1.3418 19.684 1.96068 19.684 2.7241C19.684 3.48753 20.2968 4.10641 21.0528 4.10641Z" fill="white"/>
<path d="M65.6362 63.5425H29.1033C28.8597 63.5423 28.6262 63.4444 28.454 63.2705C28.2817 63.0966 28.1849 62.8608 28.1846 62.6148V18.4102C28.1848 18.1642 28.2817 17.9284 28.454 17.7545C28.6262 17.5805 28.8597 17.4827 29.1033 17.4824H65.6362C65.8797 17.4827 66.1133 17.5805 66.2855 17.7545C66.4577 17.9284 66.5546 18.1642 66.5549 18.4102V62.6148C66.5546 62.8608 66.4577 63.0966 66.2855 63.2705C66.1132 63.4444 65.8797 63.5423 65.6362 63.5425Z" fill="#E6E6E6"/>
<path d="M48.8289 15.2988H26.077C25.5898 15.2995 25.1229 15.4952 24.7784 15.8431C24.434 16.1909 24.2402 16.6624 24.2395 17.1543V61.6646L24.4557 61.598V17.1543C24.4562 16.7203 24.6272 16.3042 24.9311 15.9972C25.235 15.6903 25.6471 15.5177 26.077 15.5171H48.896L48.8289 15.2988ZM68.6626 15.2988H26.077C25.5898 15.2995 25.1229 15.4952 24.7784 15.8431C24.434 16.1909 24.2402 16.6624 24.2395 17.1543V67.1437C24.2402 67.6356 24.434 68.1072 24.7784 68.455C25.1229 68.8028 25.5898 68.9986 26.077 68.9992H68.6626C69.1497 68.9986 69.6167 68.8028 69.9611 68.455C70.3055 68.1072 70.4994 67.6356 70.5 67.1437V17.1543C70.4994 16.6624 70.3055 16.1909 69.9611 15.8431C69.6167 15.4952 69.1497 15.2995 68.6626 15.2988ZM70.2839 67.1437C70.2834 67.5778 70.1124 67.9939 69.8084 68.3008C69.5045 68.6078 69.0924 68.7804 68.6626 68.781H26.077C25.6471 68.7804 25.235 68.6078 24.9311 68.3008C24.6272 67.9939 24.4562 67.5778 24.4557 67.1437V17.1543C24.4562 16.7203 24.6272 16.3042 24.9311 15.9972C25.235 15.6903 25.6471 15.5177 26.077 15.5171H68.6626C69.0924 15.5177 69.5045 15.6903 69.8084 15.9972C70.1124 16.3042 70.2834 16.7203 70.2839 17.1543V67.1437Z" fill="#495057"/>
<path d="M57.3136 20.1011H37.4259C37.168 20.1008 36.9207 19.9972 36.7384 19.8131C36.556 19.6289 36.4534 19.3792 36.4531 19.1188V14.3163C36.4534 14.0559 36.556 13.8062 36.7384 13.622C36.9207 13.4379 37.168 13.3343 37.4259 13.334H57.3136C57.5715 13.3343 57.8188 13.4379 58.0011 13.622C58.1835 13.8062 58.2861 14.0559 58.2864 14.3163V19.1188C58.2861 19.3792 58.1835 19.6289 58.0011 19.8131C57.8188 19.9972 57.5715 20.1008 57.3136 20.1011Z" fill="#007296"/>
<path d="M47.3697 13.6628C48.5636 13.6628 49.5314 12.6854 49.5314 11.4798C49.5314 10.2742 48.5636 9.29688 47.3697 9.29688C46.1758 9.29688 45.208 10.2742 45.208 11.4798C45.208 12.6854 46.1758 13.6628 47.3697 13.6628Z" fill="#007296"/>
<path d="M47.3698 12.8096C48.097 12.8096 48.6864 12.2143 48.6864 11.48C48.6864 10.7457 48.097 10.1504 47.3698 10.1504C46.6426 10.1504 46.0531 10.7457 46.0531 11.48C46.0531 12.2143 46.6426 12.8096 47.3698 12.8096Z" fill="white"/>
</g>
<defs>
<clipPath id="clip0_1834_15992">
<rect width="70" height="69" fill="white" transform="translate(0.5)"/>
</clipPath>
</defs>
</svg>
